<svg xmlns="http://www.w3.org/2000/svg" version="1.1" xmlns:xlink="http://www.w3.org/1999/xlink" xmlns:svgjs="http://svgjs.dev/svgjs" viewBox="0 0 800 800"><defs><linearGradient x1="50%" y1="0%" x2="50%" y2="100%" id="ffflurry-grad" gradientTransform="rotate(270)"><stop stop-color="hsl(238, 82%, 13%)" stop-opacity="1" offset="0%"></stop><stop stop-color="hsl(1.4, 100%, 67%)" stop-opacity="1" offset="45%"></stop><stop stop-color="hsl(167, 52%, 78%)" stop-opacity="1" offset="100%"></stop></linearGradient></defs><rect width="100%" height="100%" fill="hsl(238, 82%, 13%)"></rect><g fill="url(#ffflurry-grad)"><rect width="63" height="3" x="51.5" y="758.5" rx="1.5" transform="rotate(45, 83, 760)" opacity="0.11"></rect><rect width="299" height="3" x="496.5" y="65.5" rx="1.5" transform="rotate(45, 646, 67)" opacity="0.50"></rect><rect width="234" height="3" x="608" y="678.5" rx="1.5" transform="rotate(45, 725, 680)" opacity="0.68"></rect><rect width="412" height="3" x="-103" y="219.5" rx="1.5" transform="rotate(45, 103, 221)" opacity="0.16"></rect><rect width="182" height="3" x="494" y="224.5" rx="1.5" transform="rotate(45, 585, 226)" opacity="0.08"></rect><rect width="300" height="3" x="-43" y="325.5" rx="1.5" transform="rotate(45, 107, 327)" opacity="0.49"></rect><rect width="92" height="3" x="267" y="515.5" rx="1.5" transform="rotate(45, 313, 517)" opacity="0.53"></rect><rect width="111" height="3" x="667.5" y="47.5" rx="1.5" transform="rotate(45, 723, 49)" opacity="0.81"></rect><rect width="94" height="3" x="32" y="670.5" rx="1.5" transform="rotate(45, 79, 672)" opacity="0.29"></rect><rect width="307" height="3" x="8.5" y="771.5" rx="1.5" transform="rotate(45, 162, 773)" opacity="0.81"></rect><rect width="352" height="3" x="95" y="49.5" rx="1.5" transform="rotate(45, 271, 51)" opacity="0.09"></rect><rect width="641" height="3" x="-70.5" y="146.5" rx="1.5" transform="rotate(45, 250, 148)" opacity="0.68"></rect><rect width="347" height="3" x="392.5" y="28.5" rx="1.5" transform="rotate(45, 566, 30)" opacity="0.43"></rect><rect width="98" height="3" x="333" y="278.5" rx="1.5" transform="rotate(45, 382, 280)" opacity="0.79"></rect><rect width="509" height="3" x="-221.5" y="278.5" rx="1.5" transform="rotate(45, 33, 280)" opacity="0.20"></rect><rect width="413" height="3" x="-4.5" y="227.5" rx="1.5" transform="rotate(45, 202, 229)" opacity="0.10"></rect><rect width="347" height="3" x="563.5" y="259.5" rx="1.5" transform="rotate(45, 737, 261)" opacity="0.52"></rect><rect width="487" height="3" x="440.5" y="194.5" rx="1.5" transform="rotate(45, 684, 196)" opacity="0.71"></rect><rect width="665" height="3" x="133.5" y="212.5" rx="1.5" transform="rotate(45, 466, 214)" opacity="0.83"></rect><rect width="230" height="3" x="140" y="441.5" rx="1.5" transform="rotate(45, 255, 443)" opacity="0.60"></rect><rect width="413" height="3" x="-166.5" y="156.5" rx="1.5" transform="rotate(45, 40, 158)" opacity="0.31"></rect><rect width="508" height="3" x="172" y="762.5" rx="1.5" transform="rotate(45, 426, 764)" opacity="0.10"></rect><rect width="465" height="3" x="145.5" y="48.5" rx="1.5" transform="rotate(45, 378, 50)" opacity="0.33"></rect><rect width="388" height="3" x="249" y="491.5" rx="1.5" transform="rotate(45, 443, 493)" opacity="0.41"></rect><rect width="439" height="3" x="408.5" y="282.5" rx="1.5" transform="rotate(45, 628, 284)" opacity="0.47"></rect><rect width="246" height="3" x="389" y="307.5" rx="1.5" transform="rotate(45, 512, 309)" opacity="0.38"></rect><rect width="379" height="3" x="583.5" y="162.5" rx="1.5" transform="rotate(45, 773, 164)" opacity="0.25"></rect><rect width="95" height="3" x="727.5" y="721.5" rx="1.5" transform="rotate(45, 775, 723)" opacity="0.31"></rect><rect width="65" height="3" x="288.5" y="345.5" rx="1.5" transform="rotate(45, 321, 347)" opacity="0.63"></rect><rect width="308" height="3" x="124" y="260.5" rx="1.5" transform="rotate(45, 278, 262)" opacity="0.34"></rect><rect width="506" height="3" x="389" y="667.5" rx="1.5" transform="rotate(45, 642, 669)" opacity="0.52"></rect><rect width="293" height="3" x="468.5" y="572.5" rx="1.5" transform="rotate(45, 615, 574)" opacity="0.95"></rect><rect width="353" height="3" x="599.5" y="44.5" rx="1.5" transform="rotate(45, 776, 46)" opacity="0.64"></rect><rect width="333" height="3" x="528.5" y="754.5" rx="1.5" transform="rotate(45, 695, 756)" opacity="0.44"></rect><rect width="374" height="3" x="249" y="667.5" rx="1.5" transform="rotate(45, 436, 669)" opacity="0.21"></rect><rect width="59" height="3" x="117.5" y="616.5" rx="1.5" transform="rotate(45, 147, 618)" opacity="0.32"></rect><rect width="386" height="3" x="368" y="441.5" rx="1.5" transform="rotate(45, 561, 443)" opacity="0.94"></rect><rect width="537" height="3" x="-110.5" y="519.5" rx="1.5" transform="rotate(45, 158, 521)" opacity="0.91"></rect><rect width="368" height="3" x="292" y="407.5" rx="1.5" transform="rotate(45, 476, 409)" opacity="0.34"></rect><rect width="334" height="3" x="348" y="599.5" rx="1.5" transform="rotate(45, 515, 601)" opacity="0.79"></rect><rect width="141" height="3" x="692.5" y="776.5" rx="1.5" transform="rotate(45, 763, 778)" opacity="0.60"></rect><rect width="344" height="3" x="556" y="561.5" rx="1.5" transform="rotate(45, 728, 563)" opacity="0.48"></rect><rect width="469" height="3" x="513.5" y="348.5" rx="1.5" transform="rotate(45, 748, 350)" opacity="0.48"></rect><rect width="54" height="3" x="739" y="621.5" rx="1.5" transform="rotate(45, 766, 623)" opacity="0.33"></rect><rect width="186" height="3" x="-51" y="376.5" rx="1.5" transform="rotate(45, 42, 378)" opacity="0.69"></rect><rect width="623" height="3" x="351.5" y="408.5" rx="1.5" transform="rotate(45, 663, 410)" opacity="0.20"></rect><rect width="315" height="3" x="177.5" y="196.5" rx="1.5" transform="rotate(45, 335, 198)" opacity="0.25"></rect><rect width="410" height="3" x="167" y="423.5" rx="1.5" transform="rotate(45, 372, 425)" opacity="0.62"></rect><rect width="525" height="3" x="345.5" y="350.5" rx="1.5" transform="rotate(45, 608, 352)" opacity="0.10"></rect><rect width="382" height="3" x="-167" y="732.5" rx="1.5" transform="rotate(45, 24, 734)" opacity="0.35"></rect><rect width="46" height="3" x="631" y="498.5" rx="1.5" transform="rotate(45, 654, 500)" opacity="0.09"></rect><rect width="211" height="3" x="499.5" y="758.5" rx="1.5" transform="rotate(45, 605, 760)" opacity="0.20"></rect><rect width="195" height="3" x="-20.5" y="46.5" rx="1.5" transform="rotate(45, 77, 48)" opacity="0.61"></rect><rect width="355" height="3" x="-134.5" y="586.5" rx="1.5" transform="rotate(45, 43, 588)" opacity="0.62"></rect><rect width="459" height="3" x="289.5" y="732.5" rx="1.5" transform="rotate(45, 519, 734)" opacity="0.67"></rect><rect width="115" height="3" x="403.5" y="39.5" rx="1.5" transform="rotate(45, 461, 41)" opacity="0.14"></rect><rect width="572" height="3" x="115" y="140.5" rx="1.5" transform="rotate(45, 401, 142)" opacity="0.19"></rect><rect width="581" height="3" x="-109.5" y="704.5" rx="1.5" transform="rotate(45, 181, 706)" opacity="0.85"></rect><rect width="396" height="3" x="51" y="609.5" rx="1.5" transform="rotate(45, 249, 611)" opacity="0.46"></rect><rect width="313" height="3" x="435.5" y="100.5" rx="1.5" transform="rotate(45, 592, 102)" opacity="0.17"></rect><rect width="730" height="3" x="-208" y="407.5" rx="1.5" transform="rotate(45, 157, 409)" opacity="0.67"></rect><rect width="80" height="3" x="120" y="109.5" rx="1.5" transform="rotate(45, 160, 111)" opacity="0.99"></rect><rect width="93" height="3" x="612.5" y="127.5" rx="1.5" transform="rotate(45, 659, 129)" opacity="0.49"></rect><rect width="294" height="3" x="580" y="120.5" rx="1.5" transform="rotate(45, 727, 122)" opacity="0.32"></rect><rect width="123" height="3" x="362.5" y="342.5" rx="1.5" transform="rotate(45, 424, 344)" opacity="0.66"></rect><rect width="220" height="3" x="130" y="349.5" rx="1.5" transform="rotate(45, 240, 351)" opacity="0.75"></rect><rect width="726" height="3" x="-23" y="670.5" rx="1.5" transform="rotate(45, 340, 672)" opacity="0.35"></rect><rect width="271" height="3" x="370.5" y="97.5" rx="1.5" transform="rotate(45, 506, 99)" opacity="0.31"></rect><rect width="223" height="3" x="291.5" y="575.5" rx="1.5" transform="rotate(45, 403, 577)" opacity="0.88"></rect><rect width="290" height="3" x="415" y="161.5" rx="1.5" transform="rotate(45, 560, 163)" opacity="0.49"></rect><rect width="413" height="3" x="312.5" y="529.5" rx="1.5" transform="rotate(45, 519, 531)" opacity="0.78"></rect><rect width="766" height="3" x="-328" y="471.5" rx="1.5" transform="rotate(45, 55, 473)" opacity="0.98"></rect><rect width="572" height="3" x="468" y="459.5" rx="1.5" transform="rotate(45, 754, 461)" opacity="0.92"></rect><rect width="494" height="3" x="306" y="656.5" rx="1.5" transform="rotate(45, 553, 658)" opacity="0.72"></rect><rect width="655" height="3" x="-46.5" y="751.5" rx="1.5" transform="rotate(45, 281, 753)" opacity="0.08"></rect><rect width="193" height="3" x="567.5" y="19.5" rx="1.5" transform="rotate(45, 664, 21)" opacity="1.00"></rect><rect width="59" height="3" x="142.5" y="295.5" rx="1.5" transform="rotate(45, 172, 297)" opacity="0.63"></rect></g></svg>